<?xml version="1.0" standalone="no"?>
<!DOCTYPE svg PUBLIC "-//W3C//DTD SVG 20010904//EN"
 "http://www.w3.org/TR/2001/REC-SVG-20010904/DTD/svg10.dtd">
<svg version="1.0" xmlns="http://www.w3.org/2000/svg"
 width="400.000000pt" height="400.000000pt" viewBox="0 0 400.000000 400.000000"
 preserveAspectRatio="xMidYMid meet">
<metadata>
Created by potrace 1.11, written by Peter Selinger 2001-2013
</metadata>
<g transform="translate(0.000000,400.000000) scale(0.100000,-0.100000)"
fill="#000000" stroke="none">
<path d="M1780 3945 c-240 -33 -500 -132 -664 -255 -191 -142 -357 -344 -474
-577 -40 -78 -112 -293 -119 -354 -8 -67 2 -102 27 -94 24 8 24 5 6 -63 -16
-58 -6 -105 21 -100 9 2 23 -21 39 -66 13 -38 30 -77 37 -85 7 -9 21 -41 31
-71 36 -105 87 -207 115 -228 16 -11 31 -34 34 -50 3 -16 20 -53 36 -81 17
-29 31 -55 31 -60 0 -4 -18 -13 -40 -20 -25 -7 -49 -25 -67 -48 -26 -34 -28
-43 -28 -133 0 -90 2 -100 35 -165 34 -68 137 -185 162 -185 6 0 -8 17 -32 37
-148 127 -203 388 -96 461 39 27 56 28 56 5 0 -10 3 -34 6 -53 5 -31 2 -37
-25 -52 -38 -21 -41 -41 -6 -32 30 7 65 -18 65 -47 0 -10 5 -21 10 -24 6 -4
10 8 10 29 0 34 1 34 25 22 48 -25 84 -74 90 -124 7 -48 27 -122 36 -128 5 -3
9 -14 9 -25 0 -11 12 -37 26 -57 l26 -37 -7 30 c-4 16 -10 32 -13 35 -4 3 -9
26 -10 53 -3 40 -1 47 15 47 28 0 115 -61 140 -99 13 -19 23 -29 23 -24 0 21
-61 94 -100 119 -31 21 -48 25 -74 21 -36 -6 -46 7 -46 61 0 20 3 21 21 12 25
-14 145 -16 354 -5 162 8 238 20 293 49 42 22 65 94 67 210 l1 88 37 28 c47
35 127 44 217 26 35 -8 71 -13 80 -11 25 3 41 -23 56 -92 31 -151 60 -194 136
-209 97 -18 538 -24 619 -9 12 3 35 17 51 32 l28 27 0 -78 c0 -72 -2 -81 -31
-118 -17 -21 -34 -37 -36 -34 -10 10 -31 -21 -37 -55 l-7 -34 21 25 c71 86
133 127 151 99 8 -12 13 -51 10 -72 0 -4 3 -7 9 -7 5 0 10 5 10 10 0 6 10 10
23 10 12 0 36 8 52 18 36 22 108 114 129 163 38 92 27 269 -21 326 l-23 28 19
-40 c23 -47 40 -182 30 -241 -15 -88 -77 -180 -149 -223 -42 -25 -72 -28 -64
-6 9 21 -23 65 -46 65 -19 0 -20 7 -20 96 0 110 15 185 35 177 8 -2 12 -10 10
-16 -5 -15 22 -53 31 -44 3 3 2 20 -4 37 -10 28 -8 33 23 63 19 19 31 37 27
42 -4 4 8 6 26 3 17 -2 32 -1 32 3 0 10 -27 19 -57 19 -23 0 -25 3 -20 33 13
85 38 168 70 232 22 46 36 91 40 133 4 34 14 76 22 92 8 16 15 52 15 80 0 34
8 67 24 98 15 29 22 57 19 74 -3 14 0 28 5 32 7 4 7 17 2 37 -5 16 -7 36 -4
43 3 7 -4 32 -15 56 -14 31 -17 49 -10 61 17 33 9 84 -24 144 -209 381 -309
504 -557 686 -99 72 -314 176 -453 219 -72 22 -289 50 -374 49 -32 -1 -101 -7
-153 -14z m14 -1279 c25 -43 56 -67 56 -43 0 21 39 40 55 27 8 -7 20 -8 27 -4
25 16 78 10 84 -9 7 -23 24 -12 24 16 0 16 3 18 12 9 9 -9 14 -7 24 6 12 16
13 16 14 -3 1 -19 1 -19 14 -2 16 21 40 23 32 2 -7 -18 5 -20 22 -3 9 9 12 6
12 -16 0 -15 4 -25 9 -22 4 3 6 18 3 33 -3 19 -1 25 6 18 6 -5 12 -23 14 -40
4 -27 5 -28 13 -10 15 34 29 43 51 34 12 -4 25 -5 28 -2 3 3 10 -6 15 -21 13
-32 31 -34 31 -2 0 13 6 28 13 34 10 9 17 4 31 -18 19 -34 36 -39 37 -12 0 13
2 12 9 -5 13 -32 30 -29 31 5 0 15 3 21 6 14 2 -6 9 -10 14 -6 5 3 9 0 9 -7 0
-9 3 -9 14 0 11 9 16 9 22 0 4 -8 3 -9 -4 -5 -7 4 -12 1 -12 -10 0 -13 -3 -14
-14 -5 -10 8 -16 9 -21 1 -3 -5 -1 -10 4 -10 6 0 11 -4 11 -10 0 -5 -7 -10
-15 -10 -8 0 -15 -4 -15 -10 0 -19 27 -10 55 20 16 17 32 30 37 30 4 0 8 -13
8 -30 0 -44 20 -37 21 8 l1 37 10 -37 c6 -21 14 -38 18 -38 4 0 13 21 20 47
l11 48 20 -25 c10 -14 21 -33 25 -42 3 -10 13 -18 22 -19 9 0 26 -2 37 -5 11
-2 37 -4 58 -5 28 -2 37 -6 37 -20 0 -23 65 -37 92 -20 15 9 24 6 54 -21 42
-38 56 -62 60 -100 2 -16 11 -42 19 -58 10 -20 12 -30 4 -30 -7 0 -9 -9 -3
-27 4 -16 9 -46 10 -68 2 -22 5 -70 8 -108 3 -40 1 -65 -5 -62 -5 4 -9 13 -9
21 0 7 -16 31 -35 52 -38 42 -63 51 -235 77 -120 19 -275 19 -410 0 -125 -17
-180 -32 -181 -48 -2 -42 -11 -114 -14 -125 -4 -10 -9 -10 -27 -1 -32 17 -262
7 -312 -15 -22 -9 -40 -15 -42 -14 -7 8 -44 115 -44 129 0 24 -42 37 -145 48
-202 20 -480 -21 -617 -90 -21 -11 -41 -19 -45 -19 -5 0 -14 28 -20 62 -7 33
-18 65 -25 70 -11 6 -10 10 1 17 10 7 14 24 12 55 -2 41 2 49 44 93 25 26 49
59 52 73 3 14 13 41 21 60 l14 35 19 -38 c18 -35 49 -51 49 -26 0 8 5 7 16 -1
14 -12 14 -5 8 66 -7 87 -4 88 41 12 17 -29 35 -53 41 -55 5 -2 20 6 32 18 13
11 30 18 38 15 10 -4 14 3 14 27 l0 32 23 -35 22 -34 9 27 c6 15 14 27 19 27
4 0 5 -6 2 -12 -4 -7 1 -4 10 7 16 20 16 20 35 -2 10 -13 21 -23 25 -23 4 0 6
26 5 58 -1 31 -2 61 -1 65 0 5 20 -15 42 -45 57 -73 62 -77 50 -45 -14 36 -15
69 -2 48 7 -11 11 -10 20 5 10 18 10 18 11 -1 0 -11 7 -31 15 -45 13 -24 14
-24 12 18 -2 23 -2 42 -1 42 1 0 11 -16 23 -35 11 -19 25 -35 30 -35 6 0 7 15
4 35 -4 23 -2 35 6 35 6 0 11 -8 12 -17 0 -16 1 -16 8 0 6 15 9 16 17 5 6 -7
14 -22 19 -33 7 -19 8 -19 15 5 5 14 8 44 9 68 1 23 3 42 5 42 2 0 16 -20 30
-44z m967 -511 c87 -11 190 -48 219 -78 47 -49 60 -86 60 -179 -1 -143 -21
-204 -79 -236 -34 -19 -50 -20 -306 -17 -214 2 -279 6 -315 18 -25 9 -41 16
-36 16 5 1 3 8 -4 16 -7 8 -15 13 -19 11 -4 -3 -7 3 -7 12 -1 9 -8 52 -17 94
-19 88 -20 190 -3 263 9 39 17 53 39 63 53 26 327 35 468 17z m-1094 -61 c54
-27 60 -33 82 -89 21 -52 24 -78 25 -190 1 -119 -1 -133 -21 -161 -42 -59
-120 -78 -373 -89 -187 -9 -186 -9 -234 19 -57 34 -80 61 -117 141 -27 58 -34
85 -37 157 -3 48 -2 102 2 121 6 33 11 36 74 55 98 31 204 51 317 61 151 14
213 8 282 -25z"/>
<path d="M2360 2501 c-12 -8 -12 -11 -1 -11 10 0 11 -3 2 -14 -16 -19 -6 -24
66 -37 32 -6 84 -24 117 -40 42 -22 57 -26 53 -14 -5 10 0 15 13 15 29 0 24
15 -12 38 l-33 21 25 9 c23 9 23 9 -11 21 -47 17 -200 25 -219 12z"/>
<path d="M1295 2414 c-33 -14 -50 -23 -37 -20 12 2 22 1 22 -2 0 -3 -10 -17
-22 -30 l-23 -24 25 7 c14 4 32 10 40 13 8 3 -1 -12 -20 -33 -35 -37 -29 -39
20 -4 40 27 122 69 136 69 22 0 27 21 8 35 -28 21 -81 17 -149 -11z"/>
<path d="M2490 2140 c-25 -8 -25 -8 -2 -9 22 -1 22 -2 7 -18 -61 -61 -37 -183
37 -183 21 0 40 10 65 35 33 33 35 39 29 77 -4 24 -13 50 -21 59 -21 22 -18
31 8 24 16 -4 18 -3 7 4 -22 14 -101 21 -130 11z m80 -101 c0 -25 -24 -41 -38
-27 -16 16 -15 65 1 71 15 6 37 -20 37 -44z"/>
<path d="M2681 2091 c24 -16 54 -38 67 -50 12 -12 22 -18 22 -13 0 13 -51 58
-87 76 -50 25 -51 19 -2 -13z"/>
<path d="M1320 2061 c-40 -14 -68 -34 -103 -71 -26 -29 -46 -55 -43 -58 3 -3
21 13 41 35 54 62 124 94 210 95 49 0 82 -5 106 -17 l34 -17 -22 22 c-31 33
-146 38 -223 11z"/>
<path d="M1340 2037 c-45 -23 -54 -119 -15 -161 35 -38 85 -36 120 6 24 28 26
38 21 77 -11 77 -63 110 -126 78z m75 -62 c0 -38 -31 -47 -44 -13 -12 31 -3
50 23 46 16 -2 21 -10 21 -33z"/>
<path d="M3152 1690 c-1 -14 -9 -36 -18 -48 -17 -25 -10 -29 12 -7 10 9 14 27
11 47 -3 26 -4 27 -5 8z"/>
<path d="M3118 1573 c6 -2 18 -2 25 0 6 3 1 5 -13 5 -14 0 -19 -2 -12 -5z"/>
<path d="M1984 1545 c11 -8 27 -15 35 -15 13 1 12 4 -3 15 -11 8 -27 15 -35
15 -13 -1 -12 -4 3 -15z"/>
<path d="M2878 1497 c-48 -41 -84 -96 -98 -148 -17 -64 -4 -58 30 14 32 68 99
147 122 143 7 -1 19 -5 26 -9 15 -10 16 5 0 21 -19 19 -41 14 -80 -21z"/>
<path d="M2537 1449 c-54 -39 -111 -45 -237 -25 -58 9 -136 16 -175 15 -65 -1
-61 -2 52 -15 113 -12 183 -32 183 -53 0 -13 -110 -59 -158 -67 -73 -12 -56
-22 28 -17 67 5 80 3 80 -9 0 -8 9 -19 20 -24 19 -8 17 -13 -33 -64 -29 -30
-78 -68 -110 -84 -51 -25 -65 -28 -117 -23 -72 8 -163 55 -226 117 -24 24 -44
47 -44 52 0 13 18 9 23 -4 4 -9 6 -8 6 2 1 18 40 36 100 45 l45 7 -46 18 c-65
25 -102 54 -85 69 12 10 101 33 172 45 17 2 -8 3 -55 1 -52 -2 -120 -14 -175
-30 -109 -32 -149 -29 -204 16 -23 18 -44 29 -48 26 -11 -12 40 -59 85 -79 54
-24 78 -44 167 -135 73 -74 154 -135 211 -159 18 -8 60 -14 92 -14 117 0 219
77 367 279 34 46 70 84 83 87 20 6 49 41 40 49 -2 1 -20 -10 -41 -26z"/>
<path d="M1020 1409 c0 -5 11 -9 25 -9 14 0 25 2 25 4 0 2 -11 6 -25 8 -14 3
-25 1 -25 -3z"/>
<path d="M1321 1315 c16 -37 34 -65 41 -65 5 0 -1 15 -13 33 -26 38 -33 46
-28 32z"/>
<path d="M2760 1274 c0 -8 5 -12 10 -9 6 4 8 11 5 16 -9 14 -15 11 -15 -7z"/>
<path d="M1166 1267 c3 -10 9 -15 12 -12 3 3 0 11 -7 18 -10 9 -11 8 -5 -6z"/>
<path d="M1375 1220 c9 -31 25 -50 25 -29 0 7 -8 23 -16 34 -16 19 -16 19 -9
-5z"/>
<path d="M2555 1194 c-51 -26 -105 -85 -104 -113 0 -11 5 -9 17 9 39 55 63 77
101 90 22 7 38 16 36 21 -3 4 1 10 7 12 7 3 9 6 3 6 -5 0 -32 -11 -60 -25z"/>
<path d="M1110 1153 c0 -5 14 -22 30 -38 17 -16 30 -33 30 -37 0 -8 58 -98 79
-124 6 -7 7 -14 5 -17 -3 -3 2 -14 11 -24 59 -67 66 -81 53 -105 -7 -12 -19
-27 -26 -33 -20 -16 -6 -38 38 -59 45 -22 50 -41 20 -74 -22 -23 -52 -30 -48
-11 2 6 -7 13 -18 15 -21 3 -21 3 -7 -47 18 -62 14 -74 -32 -89 -38 -13 -88
-54 -98 -82 -4 -11 1 -23 14 -32 21 -14 21 -14 1 -34 -28 -28 -35 -67 -16 -83
14 -11 18 -10 30 6 8 11 12 25 10 32 -3 7 -1 13 5 13 6 0 7 4 4 10 -9 15 57
128 82 139 12 6 32 30 44 53 39 79 45 82 88 39 46 -46 98 -71 178 -86 56 -11
147 -6 172 9 4 3 11 -20 14 -52 13 -120 -64 -304 -169 -406 l-34 -33 67 0 c38
1 57 4 44 7 -32 7 -36 22 -10 38 17 11 20 11 17 0 -3 -7 5 -20 16 -30 18 -14
49 -17 226 -18 112 0 202 1 200 3 -3 3 -48 7 -101 10 -53 3 -106 10 -117 16
-11 6 -29 11 -39 11 -10 1 -36 9 -58 20 -22 11 -48 19 -57 20 -10 0 -18 5 -18
10 0 6 -8 10 -17 10 -11 0 -14 3 -8 8 6 4 24 37 41 74 17 37 33 66 35 64 5 -5
6 13 14 169 4 66 9 135 12 154 8 46 -6 52 -112 46 -124 -8 -156 4 -231 85 -60
65 -131 150 -169 204 -11 16 -30 40 -41 55 -12 14 -31 46 -44 71 -21 43 -110
141 -110 123z m210 -399 c0 -8 -5 -12 -10 -9 -6 4 -8 11 -5 16 9 14 15 11 15
-7z"/>
<path d="M1590 1155 c0 -2 10 -10 23 -16 20 -11 21 -11 8 4 -13 16 -31 23 -31
12z"/>
<path d="M2963 1103 c-11 -15 -23 -39 -26 -53 -4 -14 -19 -38 -34 -55 -15 -16
-32 -37 -38 -46 -21 -35 -103 -127 -171 -190 l-70 -66 -88 -13 c-49 -7 -108
-10 -132 -6 -26 3 -44 2 -44 -4 0 -6 -7 -10 -16 -10 -14 0 -16 -8 -10 -47 3
-26 17 -74 30 -107 34 -85 60 -216 46 -230 -8 -8 -10 -7 -5 4 4 13 -18 15
-167 15 -95 0 -210 3 -256 7 -52 4 -80 3 -77 -2 4 -6 15 -10 26 -10 11 0 17
-5 14 -10 -4 -6 7 -13 24 -16 16 -4 33 -14 36 -23 5 -13 4 -14 -6 -3 -7 6 -22
12 -34 12 -19 -1 -19 -1 -1 -11 15 -9 16 -13 5 -20 -12 -7 -11 -9 1 -10 16 0
25 -2 143 -18 96 -13 230 -14 243 -2 5 6 30 13 56 16 46 6 47 6 71 -32 13 -21
29 -54 37 -73 7 -19 17 -39 22 -45 13 -15 9 -28 -6 -22 -10 4 -13 1 -10 -8 3
-7 -2 -16 -13 -18 -10 -3 -4 -4 14 -2 17 2 37 6 42 10 6 3 11 1 11 -4 0 -6 21
-11 49 -11 39 0 58 7 97 34 27 19 48 39 46 45 -1 6 5 14 14 18 9 3 30 19 46
35 16 15 33 28 37 28 5 0 7 10 4 23 -3 16 -2 18 5 8 8 -11 14 -2 25 35 l15 49
2 -35 c2 -29 3 -31 8 -12 10 32 25 29 36 -8 13 -44 31 -31 30 22 0 39 2 44 18
40 10 -2 18 -9 18 -14 0 -5 4 -7 9 -3 5 3 12 1 16 -5 3 -5 1 -10 -5 -10 -6 0
-8 -5 -5 -10 5 -8 11 -8 20 0 10 8 12 -1 11 -43 -1 -48 1 -54 19 -52 11 0 26
-3 33 -8 8 -6 12 -5 12 2 0 6 -5 11 -11 11 -5 0 -7 4 -4 10 3 5 0 7 -7 5 -9
-4 -14 4 -16 22 -2 21 1 24 10 15 17 -17 28 -15 28 6 0 15 -2 15 -11 2 -8 -12
-9 -10 -7 9 2 15 -3 26 -12 28 -13 4 -13 3 0 -7 12 -9 12 -11 1 -8 -8 3 -17
10 -19 18 -3 9 2 11 16 8 12 -3 26 0 32 8 25 29 -144 154 -189 139 -16 -5 -28
7 -65 61 -41 62 -50 96 -23 91 7 -1 13 10 15 26 2 15 8 27 13 27 14 0 11 40
-4 46 -8 3 -27 0 -43 -6 -16 -6 -30 -10 -32 -8 -2 2 -8 -5 -13 -15 -13 -23
-29 -22 -29 2 0 11 -4 22 -9 25 -11 7 -9 25 3 45 6 10 5 12 -2 7 -7 -4 -12 -1
-12 8 0 9 -4 16 -10 16 -37 0 22 75 120 150 35 27 46 40 31 35 l-25 -8 28 34
c15 18 32 43 37 56 5 13 13 23 19 23 6 0 8 5 5 10 -3 6 -2 10 3 10 11 0 38 78
30 86 -3 3 -15 -7 -25 -23z m-245 -439 c-2 -22 -9 -30 -27 -32 -15 -3 -21 0
-16 8 4 6 13 9 21 6 8 -3 14 -1 14 4 0 6 -9 10 -20 10 -11 0 -20 5 -20 10 0 6
7 10 15 10 8 0 15 8 15 17 0 12 3 14 11 6 6 -6 9 -23 7 -39z m-18 -48 c0 -2
-7 -7 -16 -10 -8 -3 -12 -2 -9 4 6 10 25 14 25 6z m76 -64 c5 -23 1 -33 -17
-46 -13 -9 -33 -17 -44 -17 -17 -1 -17 -2 -2 -6 9 -2 17 -12 17 -21 0 -11 -3
-13 -8 -6 -10 17 -72 28 -72 14 0 -6 -12 -10 -27 -9 -16 1 -58 1 -95 1 l-68
-2 0 -32 c0 -26 -3 -30 -11 -18 -9 12 -10 12 -5 -3 3 -10 6 -23 6 -28 0 -15
58 -10 92 7 16 9 27 11 24 5 -4 -7 1 -11 13 -11 12 0 21 5 21 11 0 6 10 9 23
7 25 -3 87 20 87 32 0 5 -8 11 -17 14 -10 2 -2 2 18 -1 25 -3 40 0 45 9 5 7
21 19 35 25 24 10 29 8 52 -15 42 -46 99 -136 88 -140 -6 -2 -11 -13 -11 -24
0 -14 -5 -18 -15 -14 -12 4 -15 -3 -15 -32 0 -26 -3 -33 -9 -23 -8 12 -12 10
-22 -12 -7 -16 -21 -27 -33 -28 -20 -1 -27 -2 -51 -8 -5 -2 1 -7 15 -12 22 -8
21 -8 -8 -4 -37 5 -82 -12 -82 -32 0 -7 -7 -13 -16 -13 -8 0 -12 4 -9 10 7 11
-9 13 -42 4 -13 -4 -20 -11 -16 -20 6 -17 -9 -18 -25 -2 -9 9 -12 9 -12 0 0
-62 -113 128 -139 233 -7 28 -21 80 -32 117 -11 37 -18 72 -15 77 3 5 21 6 38
2 106 -22 246 6 292 58 19 21 19 21 33 2 7 -11 16 -33 19 -49z m1 -68 c-3 -3
-12 -4 -19 -1 -8 3 -5 6 6 6 11 1 17 -2 13 -5z m-351 -239 c-14 -14 -16 -14
-16 -2 0 9 6 17 13 20 19 7 21 -1 3 -18z m431 -81 c-3 -3 -12 -4 -19 -1 -8 3
-5 6 6 6 11 1 17 -2 13 -5z m-237 -94 c0 -5 -4 -10 -10 -10 -5 0 -10 5 -10 10
0 6 5 10 10 10 6 0 10 -4 10 -10z"/>
<path d="M2817 225 c-10 -7 -14 -16 -9 -19 5 -3 15 1 22 9 17 21 9 27 -13 10z"/>
<path d="M1625 1111 c-3 -6 -2 -11 4 -11 5 0 32 -23 60 -51 41 -41 51 -58 51
-85 0 -39 -9 -43 -35 -14 -10 11 -21 17 -25 15 -4 -2 9 -22 29 -43 59 -61 74
-104 69 -184 -4 -54 -2 -68 9 -68 20 0 34 47 29 99 -3 25 -3 38 0 29 3 -10 13
-18 22 -18 15 0 15 2 2 11 -11 7 -6 8 20 4 69 -10 86 -14 131 -28 26 -8 92
-15 147 -16 87 -2 108 1 161 23 33 15 63 26 66 26 3 0 5 -13 5 -29 0 -16 6
-33 13 -39 10 -8 13 3 15 51 4 65 18 100 65 160 25 33 27 38 11 35 -13 -2 -20
4 -22 20 -4 27 -18 29 -25 3 -5 -22 -114 -53 -250 -73 -76 -10 -111 -10 -239
5 -155 17 -188 29 -188 67 0 34 -111 133 -125 111z m734 -178 c-25 -29 -97
-54 -172 -58 l-72 -5 57 16 c32 9 56 20 53 24 -3 4 28 14 68 23 39 8 74 15 76
16 2 0 -3 -6 -10 -16z m25 -58 c-9 -14 -21 -25 -27 -25 -6 0 0 11 13 25 13 14
25 25 27 25 2 0 -4 -11 -13 -25z"/>
<path d="M3003 1068 c34 -78 70 -183 83 -236 24 -107 35 -142 70 -232 36 -96
41 -120 49 -240 5 -90 -11 -177 -37 -204 -8 -8 -21 -28 -28 -45 -11 -27 -14
-29 -24 -16 -10 14 -13 12 -27 -12 -9 -15 -19 -40 -23 -55 -5 -23 -3 -28 12
-28 27 0 65 45 114 135 l43 80 -1 125 c-2 135 -8 166 -58 310 -19 52 -48 142
-66 200 -33 108 -88 230 -103 230 -5 0 -7 -6 -4 -12z m100 -1003 c-3 -9 -8
-14 -10 -11 -3 3 -2 9 2 15 9 16 15 13 8 -4z"/>
<path d="M1217 846 c-15 -34 -44 -130 -63 -212 -20 -82 -49 -183 -66 -224 -24
-59 -31 -91 -32 -150 -1 -70 1 -79 36 -135 50 -80 91 -129 106 -124 8 3 -8 33
-41 79 -64 89 -80 132 -71 191 5 40 45 177 64 224 5 11 16 61 25 110 9 50 31
135 50 190 38 114 33 147 -8 51z"/>
<path d="M2830 805 c-7 -8 -9 -15 -5 -15 4 0 2 -6 -4 -14 -8 -10 -9 -16 -1
-21 6 -3 8 -10 5 -15 -3 -5 0 -12 6 -16 7 -4 9 -3 6 3 -4 6 7 22 23 36 18 16
27 33 24 42 -8 19 -38 19 -54 0z"/>
<path d="M1261 768 c-1 -9 -3 -22 -4 -30 -2 -7 -2 -10 0 -5 3 4 9 5 14 1 11
-6 11 4 -1 31 -7 16 -9 17 -9 3z"/>
<path d="M2953 643 c9 -2 25 -2 35 0 9 3 1 5 -18 5 -19 0 -27 -2 -17 -5z"/>
<path d="M2160 632 c0 -4 17 -6 38 -4 58 5 62 10 10 11 -27 1 -48 -3 -48 -7z"/>
<path d="M2057 609 c7 -7 15 -10 18 -7 3 3 -2 9 -12 12 -14 6 -15 5 -6 -5z"/>
<path d="M2178 597 c27 -13 29 -27 2 -27 -11 0 -20 3 -20 8 0 4 -18 8 -40 8
-22 1 -40 -3 -40 -7 0 -5 -18 -6 -40 -3 -27 4 -40 3 -40 -5 0 -7 20 -11 53
-11 33 0 47 -3 38 -9 -11 -7 -9 -10 8 -16 13 -4 28 -1 37 6 12 9 23 9 55 -1
32 -11 42 -11 48 -1 5 7 19 10 37 6 23 -4 25 -3 9 4 -17 8 -18 10 -2 10 9 1
17 6 17 12 0 6 -7 8 -15 5 -8 -3 -23 -9 -32 -12 -15 -5 -16 -4 -3 5 22 15 3
28 -50 34 -37 4 -41 3 -22 -6z"/>
<path d="M1450 370 c19 -13 30 -13 30 0 0 6 -10 10 -22 10 -19 0 -20 -2 -8
-10z"/>
<path d="M1504 345 c6 -17 -9 -21 -19 -5 -3 6 -15 10 -26 10 -10 0 -19 -4 -19
-10 0 -5 5 -10 11 -10 5 0 7 -4 4 -10 -3 -6 1 -7 9 -4 9 3 16 1 16 -5 0 -6 12
-11 26 -11 17 0 28 -6 31 -20 4 -16 14 -20 44 -20 21 0 41 -5 44 -11 9 -13 56
-8 73 9 8 6 11 20 9 30 -4 16 -5 16 -6 -1 -1 -18 0 -18 -68 16 -18 8 -41 13
-52 10 -14 -3 -23 0 -27 11 -3 9 -12 16 -20 16 -8 0 -14 5 -14 10 0 6 -5 10
-11 10 -6 0 -9 -7 -5 -15z"/>
<path d="M1298 110 c28 -12 46 -29 55 -52 3 -10 11 -18 17 -18 14 0 13 -27 -2
-33 -7 -3 4 -6 24 -6 29 -1 36 2 32 14 -4 8 -1 15 5 15 6 0 11 -8 11 -17 1
-17 1 -17 11 0 13 21 4 35 -28 48 -13 5 -21 13 -18 19 3 6 -5 10 -19 10 -13 0
-26 5 -28 10 -2 6 -21 13 -43 15 -33 5 -36 4 -17 -5z"/>
<path d="M1503 63 c-13 -2 -23 -9 -23 -14 0 -13 13 -11 36 6 10 8 17 14 14 13
-3 0 -15 -3 -27 -5z"/>
<path d="M1530 40 c0 -5 -12 -10 -26 -10 -27 0 -25 -15 4 -22 12 -3 22 3 29
18 6 13 7 24 2 24 -5 0 -9 -4 -9 -10z"/>
<path d="M1557 33 c-4 -3 -7 -11 -7 -17 0 -6 5 -5 12 2 6 6 9 14 7 17 -3 3 -9
2 -12 -2z"/>
<path d="M2490 34 c0 -5 -21 -9 -47 -10 -64 -1 -237 -16 -242 -20 -2 -2 61 -4
141 -4 126 0 147 2 152 16 4 9 4 19 1 22 -3 3 -5 1 -5 -4z m-13 -20 c-3 -3
-12 -4 -19 -1 -8 3 -5 6 6 6 11 1 17 -2 13 -5z"/>
<path d="M2168 3 c7 -3 16 -2 19 1 4 3 -2 6 -13 5 -11 0 -14 -3 -6 -6z"/>
</g>
</svg>
